<svg id="visual" viewBox="0 0 960 540" width="960" height="540" xmlns="http://www.w3.org/2000/svg" xmlns:xlink="http://www.w3.org/1999/xlink" version="1.1"><rect x="0" y="0" width="960" height="540" fill="#ffffff"></rect><defs><linearGradient id="grad1_0" x1="43.8%" y1="100%" x2="100%" y2="0%"><stop offset="14.444444444444446%" stop-color="#0991cc" stop-opacity="1"></stop><stop offset="85.55555555555554%" stop-color="#0991cc" stop-opacity="1"></stop></linearGradient></defs><defs><linearGradient id="grad1_1" x1="43.8%" y1="100%" x2="100%" y2="0%"><stop offset="14.444444444444446%" stop-color="#0991cc" stop-opacity="1"></stop><stop offset="85.55555555555554%" stop-color="#7eb4dd" stop-opacity="1"></stop></linearGradient></defs><defs><linearGradient id="grad1_2" x1="43.8%" y1="100%" x2="100%" y2="0%"><stop offset="14.444444444444446%" stop-color="#c1d9ee" stop-opacity="1"></stop><stop offset="85.55555555555554%" stop-color="#7eb4dd" stop-opacity="1"></stop></linearGradient></defs><defs><linearGradient id="grad1_3" x1="43.8%" y1="100%" x2="100%" y2="0%"><stop offset="14.444444444444446%" stop-color="#c1d9ee" stop-opacity="1"></stop><stop offset="85.55555555555554%" stop-color="#ffffff" stop-opacity="1"></stop></linearGradient></defs><defs><linearGradient id="grad2_0" x1="0%" y1="100%" x2="56.3%" y2="0%"><stop offset="14.444444444444446%" stop-color="#0991cc" stop-opacity="1"></stop><stop offset="85.55555555555554%" stop-color="#0991cc" stop-opacity="1"></stop></linearGradient></defs><defs><linearGradient id="grad2_1" x1="0%" y1="100%" x2="56.3%" y2="0%"><stop offset="14.444444444444446%" stop-color="#7eb4dd" stop-opacity="1"></stop><stop offset="85.55555555555554%" stop-color="#0991cc" stop-opacity="1"></stop></linearGradient></defs><defs><linearGradient id="grad2_2" x1="0%" y1="100%" x2="56.3%" y2="0%"><stop offset="14.444444444444446%" stop-color="#7eb4dd" stop-opacity="1"></stop><stop offset="85.55555555555554%" stop-color="#c1d9ee" stop-opacity="1"></stop></linearGradient></defs><defs><linearGradient id="grad2_3" x1="0%" y1="100%" x2="56.3%" y2="0%"><stop offset="14.444444444444446%" stop-color="#ffffff" stop-opacity="1"></stop><stop offset="85.55555555555554%" stop-color="#c1d9ee" stop-opacity="1"></stop></linearGradient></defs><g transform="translate(960, 540)"><path d="M-270 0C-252.1 -31.4 -234.3 -62.9 -218 -90.3C-201.8 -117.7 -187.1 -141.2 -169.7 -169.7C-152.3 -198.2 -132.1 -231.9 -103.3 -249.4C-74.6 -267 -37.3 -268.5 0 -270L0 0Z" fill="#e0ecf7"></path><path d="M-202.5 0C-189.1 -23.6 -175.7 -47.2 -163.5 -67.7C-151.3 -88.3 -140.4 -105.9 -127.3 -127.3C-114.2 -148.7 -99.1 -173.9 -77.5 -187.1C-55.9 -200.3 -28 -201.4 0 -202.5L0 0Z" fill="#a1c6e6"></path><path d="M-135 0C-126.1 -15.7 -117.1 -31.4 -109 -45.2C-100.9 -58.9 -93.6 -70.6 -84.9 -84.9C-76.1 -99.1 -66 -115.9 -51.7 -124.7C-37.3 -133.5 -18.6 -134.3 0 -135L0 0Z" fill="#56a2d5"></path><path d="M-67.5 0C-63 -7.9 -58.6 -15.7 -54.5 -22.6C-50.4 -29.4 -46.8 -35.3 -42.4 -42.4C-38.1 -49.6 -33 -58 -25.8 -62.4C-18.6 -66.8 -9.3 -67.1 0 -67.5L0 0Z" fill="#0991cc"></path></g><g transform="translate(0, 0)"><path d="M270 0C267 36.1 264 72.1 249.4 103.3C234.9 134.5 208.8 160.8 181.7 181.7C154.6 202.6 126.5 218.1 96.1 231.9C65.6 245.7 32.8 257.9 0 270L0 0Z" fill="#e0ecf7"></path><path d="M202.5 0C200.2 27 198 54.1 187.1 77.5C176.2 100.9 156.6 120.6 136.3 136.3C116 152 94.9 163.6 72 173.9C49.2 184.3 24.6 193.4 0 202.5L0 0Z" fill="#a1c6e6"></path><path d="M135 0C133.5 18 132 36.1 124.7 51.7C117.5 67.3 104.4 80.4 90.9 90.9C77.3 101.3 63.3 109 48 115.9C32.8 122.9 16.4 128.9 0 135L0 0Z" fill="#56a2d5"></path><path d="M67.5 0C66.7 9 66 18 62.4 25.8C58.7 33.6 52.2 40.2 45.4 45.4C38.7 50.7 31.6 54.5 24 58C16.4 61.4 8.2 64.5 0 67.5L0 0Z" fill="#0991cc"></path></g></svg>