<svg id="visual" viewBox="0 0 960 540" width="960" height="540" xmlns="http://www.w3.org/2000/svg" xmlns:xlink="http://www.w3.org/1999/xlink" version="1.1"><path d="M0 382L137 382L274 370L411 349L549 333L686 386L823 360L960 351L960 541L823 541L686 541L549 541L411 541L274 541L137 541L0 541Z" fill="#56a2d5"></path><path d="M0 363L137 406L274 422L411 395L549 361L686 429L823 371L960 367L960 541L823 541L686 541L549 541L411 541L274 541L137 541L0 541Z" fill="#00c4e1"></path><path d="M0 444L137 404L274 458L411 431L549 451L686 424L823 423L960 447L960 541L823 541L686 541L549 541L411 541L274 541L137 541L0 541Z" fill="#00e1cd"></path><path d="M0 435L137 436L274 461L411 460L549 452L686 478L823 460L960 443L960 541L823 541L686 541L549 541L411 541L274 541L137 541L0 541Z" fill="#56f791"></path><path d="M0 506L137 484L274 484L411 472L549 506L686 506L823 499L960 495L960 541L823 541L686 541L549 541L411 541L274 541L137 541L0 541Z" fill="#c8ff1c"></path></svg>