<svg id="visual" viewBox="0 0 900 600" width="900" height="600" xmlns="http://www.w3.org/2000/svg" xmlns:xlink="http://www.w3.org/1999/xlink" version="1.1"><rect width="900" height="600" fill="#ffffff"></rect><g><g transform="translate(896 559)"><path d="M0 -100.4L86.9 -50.2L86.9 50.2L0 100.4L-86.9 50.2L-86.9 -50.2Z" fill="#00E1CD"></path></g><g transform="translate(110 257)"><path d="M0 -90L77.9 -45L77.9 45L0 90L-77.9 45L-77.9 -45Z" fill="#00E1CD"></path></g><g transform="translate(826 126)"><path d="M0 -84L72.7 -42L72.7 42L0 84L-72.7 42L-72.7 -42Z" fill="#00E1CD"></path></g><g transform="translate(400 50)"><path d="M0 -80L69.3 -40L69.3 40L0 80L-69.3 40L-69.3 -40Z" fill="#00E1CD"></path></g></g></svg>