<svg xmlns="http://www.w3.org/2000/svg" width="1439" height="810" fill="none"><g clip-path="url(#a)"><path fill="#C8FF1C" d="M1501-179H-7.998v989H1501v-989Z"/><path fill="#fff" d="M684.968 810c3.857-113.241 7.713-226.646 62.037-307.085 54.324-80.273 159.283-127.745 235.907-202.25 76.628-74.505 125.248-175.877 206.898-229.283C1271.47 18.14 1386.32 12.866 1501 7.756V810H684.968ZM808.036-179c-1.342 115.054-2.851 230.107-62.037 307.085-59.186 76.812-176.218 115.548-256.027 182.47-79.977 66.757-122.732 161.702-199.691 218.569-76.791 56.868-187.451 75.494-298.28 94.12V-179h816.035Z"/></g><defs><clipPath id="a"><path fill="#fff" d="M-7.998-179h1509v989h-1509z"/></clipPath></defs></svg>